<?xml version="1.0" encoding="utf-8"?>
<!-- Generator: Adobe Illustrator 27.5.0, SVG Export Plug-In . SVG Version: 6.00 Build 0)  -->
<svg version="1.1" id="Layer_1" xmlns="http://www.w3.org/2000/svg" xmlns:xlink="http://www.w3.org/1999/xlink" x="0px" y="0px"
	 viewBox="0 0 1280 1024" style="enable-background:new 0 0 1280 1024;" xml:space="preserve">
<style type="text/css">
	.st0{fill:#D6D4C4;stroke:#000000;stroke-width:4;stroke-miterlimit:10;}
	.st1{fill:#F5F5DC;stroke:#000000;stroke-width:4;stroke-miterlimit:10;}
	.st2{fill:#FFFFFF;stroke:#000000;stroke-miterlimit:10;}
</style>
<polyline class="st0" points="433.6,217.17 433.6,217.17 364.14,217.17 174.06,849.37 251.55,849.37 "/>
<polyline class="st1" points="267.22,850.5 424.26,321.44 600.63,849.37 661.91,849.37 453.94,217.17 "/>
<polyline class="st0" points="338,626.48 1054.49,215.52 317.65,697.4 "/>
<g>
	<g>
		<polygon class="st0" points="753.96,718.67 753.97,717.66 753.96,717.66 		"/>
		<path class="st0" d="M945.1,613.5c-17.36-46.41-66.04-45.79-66.04-45.79c37.14-7.4,86.85-51.03,55.93-98.28
			c0,0-8.13-40.52-183.06-53.69l-3.04,302.93C873.25,711.23,964.6,684.59,945.1,613.5z M913.85,633.55
			c-19.54,49.67-134.46,54.73-134.46,54.73l-1.02,2.03V454.25c201.12,5.44,152.29,103.62,2.03,116.51
			C780.41,570.76,933.39,583.88,913.85,633.55z"/>
	</g>
	<path class="st0" d="M825.16,689.29"/>
</g>
<polygon class="st2" points="758.79,717.95 770.73,717.03 770.73,417.44 758.79,416.39 "/>
<line class="st0" x1="1054.49" y1="215.52" x2="453.94" y2="217.17"/>
</svg>
